<?xml version="1.0" encoding="UTF-8" standalone="no"?>
<svg
   xmlns:dc="http://purl.org/dc/elements/1.1/"
   xmlns:cc="http://creativecommons.org/ns#"
   xmlns:rdf="http://www.w3.org/1999/02/22-rdf-syntax-ns#"
   xmlns:svg="http://www.w3.org/2000/svg"
   xmlns="http://www.w3.org/2000/svg"
   xmlns:sodipodi="http://sodipodi.sourceforge.net/DTD/sodipodi-0.dtd"
   xmlns:inkscape="http://www.inkscape.org/namespaces/inkscape"
   version="1.1"
   id="svg851"
   width="226.66667"
   height="390.66666"
   viewBox="0 0 226.66667 390.66666"
   sodipodi:docname="bauer-_half-cropped-inkscape-format.svg"
   inkscape:version="1.0.2 (e86c8708, 2021-01-15)">
  <sodipodi:namedview
     pagecolor="#ffffff"
     bordercolor="#666666"
     borderopacity="1"
     objecttolerance="10"
     gridtolerance="10"
     guidetolerance="10"
     inkscape:pageopacity="0"
     inkscape:pageshadow="2"
     inkscape:window-width="2219"
     inkscape:window-height="1314"
     id="namedview846"
     showgrid="false"
     inkscape:zoom="2.5323529"
     inkscape:cx="30.999639"
     inkscape:cy="195.33333"
     inkscape:window-x="0"
     inkscape:window-y="25"
     inkscape:window-maximized="0"
     inkscape:current-layer="svg851" />
  <metadata
     id="metadata857">
    <rdf:RDF>
      <cc:Work
         rdf:about="">
        <dc:format>image/svg+xml</dc:format>
        <dc:type
           rdf:resource="http://purl.org/dc/dcmitype/StillImage" />
        <dc:title></dc:title>
      </cc:Work>
    </rdf:RDF>
  </metadata>
  <defs
     id="defs855" />
  <path
     id="path894"
     style="fill:none;fill-opacity:1;stroke:#d61a1a;stroke-width:1.33333;stroke-opacity:1"
     d="M 0.66879875,50.968739 1.7410644,389.99999 H 95.328955 c 0.08363,-0.0553 0.174435,-0.0945 0.257813,-0.15039 8.882912,-9.83519 -0.791158,-21.44706 -6.898438,-27.52148 6.55215,-7.81948 10.0732,-18.32443 4.625,-27.89649 C 87.50706,321.51479 83.700516,307.63674 77.104346,295.15624 65.152916,281.59971 51.329109,268.86647 45.569189,251.11718 42.294989,239.24405 33.43785,225.01153 39.03208,213.34374 50.1681,210.15996 76.848791,204.5111 65.619971,187.99023 56.434271,179.17725 37.848616,177.74521 35.848486,163.11718 38.894146,150.08571 52.483341,141.98459 54.182471,128.11132 59.294381,105.60337 55.616267,78.284107 36.123877,63.503895 26.109867,55.099254 13.443749,51.100426 0.66879875,50.968739 Z" />
</svg>
