999
"DXF R12 Output" (www.mydxf.blogspot.com)
 0 
SECTION
 2 
HEADER
 9 
$ACADVER
 1 
AC1009
 9 
$EXTMIN
 10 
 0 
 20 
 0 
 9 
$EXTMAX
 10 
 8.5 
 20 
 11 
 0 
ENDSEC
 0 
SECTION
 2 
ENTITIES
0
LINE
8
Layer 1
10
0.188750
20
95.870500
11
0.491367
21
0.188423
0
LINE
8
Layer 1
10
0.491367
20
0.188423
11
26.903900
21
0.188423
0
LINE
8
Layer 1
10
26.903900
20
0.188423
11
26.976661
21
0.230866
0
LINE
8
Layer 1
10
26.976661
20
0.230866
11
27.683469
21
1.291230
0
LINE
8
Layer 1
10
27.683469
20
1.291230
11
27.972461
21
2.374410
0
LINE
8
Layer 1
10
27.972461
20
2.374410
11
27.916806
21
3.456219
0
LINE
8
Layer 1
10
27.916806
20
3.456219
11
27.589675
21
4.512465
0
LINE
8
Layer 1
10
27.589675
20
4.512465
11
27.064236
21
5.518960
0
LINE
8
Layer 1
10
27.064236
20
5.518960
11
26.413659
21
6.451513
0
LINE
8
Layer 1
10
26.413659
20
6.451513
11
25.029771
21
7.998036
0
LINE
8
Layer 1
10
25.029771
20
7.998036
11
26.230060
21
9.779309
0
LINE
8
Layer 1
10
26.230060
20
9.779309
11
26.952446
21
11.749058
0
LINE
8
Layer 1
10
26.952446
20
11.749058
11
27.085326
21
12.774693
0
LINE
8
Layer 1
10
27.085326
20
12.774693
11
27.039814
21
13.811546
0
LINE
8
Layer 1
10
27.039814
20
13.811546
11
26.796268
21
14.847649
0
LINE
8
Layer 1
10
26.796268
20
14.847649
11
26.335051
21
15.871036
0
LINE
8
Layer 1
10
26.335051
20
15.871036
11
24.131381
21
21.459405
0
LINE
8
Layer 1
10
24.131381
20
21.459405
11
23.030201
21
24.250141
0
LINE
8
Layer 1
10
23.030201
20
24.250141
11
21.760500
21
26.955400
0
LINE
8
Layer 1
10
21.760500
20
26.955400
11
19.175548
21
29.807075
0
LINE
8
Layer 1
10
19.175548
20
29.807075
11
16.655313
21
32.726100
0
LINE
8
Layer 1
10
16.655313
20
32.726100
11
14.462695
21
35.866975
0
LINE
8
Layer 1
10
14.462695
20
35.866975
11
13.571401
21
37.568888
0
LINE
8
Layer 1
10
13.571401
20
37.568888
11
12.860600
21
39.384200
0
LINE
8
Layer 1
10
12.860600
20
39.384200
11
11.960503
21
42.000500
0
LINE
8
Layer 1
10
11.960503
20
42.000500
11
10.999600
21
44.736200
0
LINE
8
Layer 1
10
10.999600
20
44.736200
11
10.661996
21
46.108114
0
LINE
8
Layer 1
10
10.661996
20
46.108114
11
10.507972
21
47.461025
0
LINE
8
Layer 1
10
10.507972
20
47.461025
11
10.603786
21
48.778648
0
LINE
8
Layer 1
10
10.603786
20
48.778648
11
11.015700
21
50.044700
0
LINE
8
Layer 1
10
11.015700
20
50.044700
11
13.959663
21
50.886106
0
LINE
8
Layer 1
10
13.959663
20
50.886106
11
15.606607
21
51.474160
0
LINE
8
Layer 1
10
15.606607
20
51.474160
11
17.134475
21
52.210850
0
LINE
8
Layer 1
10
17.134475
20
52.210850
11
18.366477
21
53.123977
0
LINE
8
Layer 1
10
18.366477
20
53.123977
11
18.816282
21
53.655393
0
LINE
8
Layer 1
10
18.816282
20
53.655393
11
19.125825
21
54.241344
0
LINE
8
Layer 1
10
19.125825
20
54.241344
11
19.273007
21
54.885305
0
LINE
8
Layer 1
10
19.273007
20
54.885305
11
19.235729
21
55.590751
0
LINE
8
Layer 1
10
19.235729
20
55.590751
11
18.991893
21
56.361158
0
LINE
8
Layer 1
10
18.991893
20
56.361158
11
18.519400
21
57.200000
0
LINE
8
Layer 1
10
18.519400
20
57.200000
11
17.437219
21
58.046401
0
LINE
8
Layer 1
10
17.437219
20
58.046401
11
16.192270
21
58.765573
0
LINE
8
Layer 1
10
16.192270
20
58.765573
11
13.557837
21
60.094437
0
LINE
8
Layer 1
10
13.557837
20
60.094437
11
12.340237
21
60.840233
0
LINE
8
Layer 1
10
12.340237
20
60.840233
11
11.303636
21
61.731008
0
LINE
8
Layer 1
10
11.303636
20
61.731008
11
10.533976
21
62.834813
0
LINE
8
Layer 1
10
10.533976
20
62.834813
11
10.117200
21
64.219700
0
LINE
8
Layer 1
10
10.117200
20
64.219700
11
10.566665
21
65.539548
0
LINE
8
Layer 1
10
10.566665
20
65.539548
11
11.220898
21
66.764341
0
LINE
8
Layer 1
10
11.220898
20
66.764341
11
12.846888
21
69.070350
0
LINE
8
Layer 1
10
12.846888
20
69.070350
11
14.401608
21
71.420909
0
LINE
8
Layer 1
10
14.401608
20
71.420909
11
14.966755
21
72.701389
0
LINE
8
Layer 1
10
14.966755
20
72.701389
11
15.291500
21
74.099200
0
LINE
8
Layer 1
10
15.291500
20
74.099200
11
15.712354
21
76.535363
0
LINE
8
Layer 1
10
15.712354
20
76.535363
11
15.877403
21
79.041445
0
LINE
8
Layer 1
10
15.877403
20
79.041445
11
15.763420
21
81.560065
0
LINE
8
Layer 1
10
15.763420
20
81.560065
11
15.347175
21
84.033838
0
LINE
8
Layer 1
10
15.347175
20
84.033838
11
14.605439
21
86.405381
0
LINE
8
Layer 1
10
14.605439
20
86.405381
11
13.514984
21
88.617311
0
LINE
8
Layer 1
10
13.514984
20
88.617311
11
12.052581
21
90.612245
0
LINE
8
Layer 1
10
12.052581
20
90.612245
11
10.195000
21
92.332800
0
LINE
8
Layer 1
10
10.195000
20
92.332800
11
7.946217
21
93.881022
0
LINE
8
Layer 1
10
7.946217
20
93.881022
11
5.484056
21
94.977200
0
LINE
8
Layer 1
10
5.484056
20
94.977200
11
2.875805
21
95.635603
0
LINE
8
Layer 1
10
2.875805
20
95.635603
11
0.188750
21
95.870500
0
LINE
8
Layer 1
10
0.188750
20
95.870500
11
0.188750
21
95.870500
 0 
ENDSEC
 0 
EOF